<svg width="221" height="221" viewBox="0 0 221 221" fill="none" xmlns="http://www.w3.org/2000/svg">
<circle cx="110.5" cy="110.5" r="110.5" fill="#4E768D"/>
<path d="M79.5001 78.882C80.8773 83.2539 84.9313 86.2273 89.515 86.2273H132.485C137.069 86.2273 141.123 83.2539 142.5 78.882C145.703 68.7123 155.052 61.5 165.915 61.5C179.364 61.5 190.5 72.5837 190.5 86.5455C190.5 93.0954 188.046 99.0195 184.035 103.472C180.437 107.467 180.437 113.533 184.035 117.528C188.046 121.981 190.5 127.905 190.5 134.455C190.5 148.416 179.364 159.5 165.915 159.5C155.052 159.5 145.703 152.288 142.5 142.118C141.123 137.746 137.069 134.773 132.485 134.773H89.515C84.9313 134.773 80.8773 137.746 79.5001 142.118C76.2966 152.288 66.9479 159.5 56.0847 159.5C42.6357 159.5 31.5 148.416 31.5 134.455C31.5 127.905 33.9535 121.981 37.9648 117.528C41.563 113.533 41.563 107.467 37.9648 103.472C33.9535 99.0194 31.5 93.0954 31.5 86.5455C31.5 72.5837 42.6357 61.5 56.0847 61.5C66.9479 61.5 76.2966 68.7123 79.5001 78.882Z" stroke="white" stroke-width="21" stroke-linejoin="round"/>
</svg>
