<svg width="221" height="221" viewBox="0 0 221 221" fill="none" xmlns="http://www.w3.org/2000/svg">
<circle cx="110.5" cy="110.5" r="110.5" fill="#4E768D"/>
<path d="M83.9824 121.4C84.1158 124.067 84.5158 126.3 85.1824 128.1C85.8491 129.9 86.9158 131.533 88.3824 133L87.5824 134H70.1824L69.4824 132.2C71.6824 131.6 73.0824 131 73.6824 130.4C74.3491 129.8 74.6824 128.7 74.6824 127.1C74.6824 126.233 74.1491 118.133 73.0824 102.8L72.4824 94.1L58.9824 132.5H56.1824L42.7824 94.4L41.3824 117.2C41.1158 120.4 40.9824 122.633 40.9824 123.9C40.9824 125.633 41.1824 127.167 41.5824 128.5C42.0491 129.767 42.8824 131.267 44.0824 133L43.1824 134H32.0824L31.4824 132.2C33.2158 131.667 34.4491 131.2 35.1824 130.8C35.9824 130.4 36.5158 129.833 36.7824 129.1C37.1158 128.367 37.3491 127.233 37.4824 125.7L38.6824 106.5C39.0158 102.033 39.1824 99.1 39.1824 97.7C39.1824 95.4333 38.9158 93.7667 38.3824 92.7C37.9158 91.6333 36.8158 90.2667 35.0824 88.6L35.7824 87.3H50.3824L60.6824 118.4L71.5824 87.3H84.4824L85.4824 88.4C84.2158 90.2667 83.3491 91.8 82.8824 93C82.4824 94.2 82.2824 95.7667 82.2824 97.7C82.2824 98.9667 82.4158 100.933 82.6824 103.6L83.9824 121.4ZM125.343 125C126.01 126.867 126.743 128.367 127.543 129.5C128.343 130.567 129.577 131.733 131.243 133L130.343 134H112.243L111.643 132.2L113.143 131.8C114.143 131.467 114.843 131.067 115.243 130.6C115.71 130.067 115.943 129.367 115.943 128.5C115.943 127.967 115.577 126.6 114.843 124.4L112.843 118.5H97.3434L96.5434 121C95.5434 124 95.0434 126.267 95.0434 127.8C95.0434 129.267 95.31 130.6 95.8434 131.8L96.5434 133L95.6434 134H84.6434L83.9434 132.2L85.4434 131.8C87.0434 131.333 88.2434 130.7 89.0434 129.9C89.8434 129.033 90.61 127.533 91.3434 125.4L101.543 96C102.01 94.3333 102.243 93.1667 102.243 92.5C102.243 91.0333 101.177 90 99.0434 89.4L97.9434 89.1L98.6434 87.3H112.243L125.343 125ZM111.843 115.7L105.043 95.4L98.3434 115.7H111.843ZM157.721 88.4L156.721 89.5C154.921 91.7 153.387 94 152.121 96.4L143.021 113.8V125.7C143.021 127.233 143.154 128.4 143.421 129.2C143.754 129.933 144.287 130.5 145.021 130.9C145.754 131.3 146.921 131.733 148.521 132.2L147.921 134H130.421L129.621 133L130.421 131.8C131.554 130.333 132.321 128.833 132.721 127.3C133.187 125.7 133.421 123.567 133.421 120.9V114L123.921 96.6C122.854 94.4667 121.854 92.8333 120.921 91.7C119.987 90.5 118.821 89.4 117.421 88.4L118.321 87.3H136.621L137.121 89.1L135.621 89.5C133.687 89.9 132.721 90.6667 132.721 91.8C132.721 92.2 132.887 92.7667 133.221 93.5C133.554 94.2333 134.054 95.2333 134.721 96.5L141.521 109.3L148.721 95.6C149.254 94.7333 149.521 93.8667 149.521 93C149.521 92.1333 149.254 91.4 148.721 90.8C148.187 90.1333 147.521 89.7 146.721 89.5L144.821 89.1L145.421 87.3H156.921L157.721 88.4ZM165.448 95C165.448 97.6667 166.381 99.8667 168.248 101.6C170.115 103.267 172.915 105.167 176.648 107.3C179.381 108.833 181.548 110.167 183.148 111.3C184.748 112.433 186.115 113.867 187.248 115.6C188.381 117.333 188.948 119.333 188.948 121.6C188.948 125.733 187.281 129 183.948 131.4C180.681 133.733 176.281 134.9 170.748 134.9C166.015 134.9 162.181 134 159.248 132.2C156.381 130.4 154.948 127.967 154.948 124.9C154.948 122.9 155.615 121.333 156.948 120.2C158.348 119 160.081 118.4 162.148 118.4C163.748 118.4 165.281 118.8 166.748 119.6C164.681 120.667 163.648 122.767 163.648 125.9C163.648 127.767 164.315 129.367 165.648 130.7C167.048 131.967 168.915 132.6 171.248 132.6C173.648 132.6 175.515 131.933 176.848 130.6C178.248 129.267 178.948 127.6 178.948 125.6C178.948 123.267 178.081 121.367 176.348 119.9C174.681 118.367 172.115 116.6 168.648 114.6C165.915 113.133 163.648 111.767 161.848 110.5C160.115 109.233 158.648 107.667 157.448 105.8C156.248 103.933 155.648 101.733 155.648 99.2C155.648 95.4 157.248 92.3333 160.448 90C163.715 87.6 167.948 86.4 173.148 86.4C177.615 86.4 181.248 87.2667 184.048 89C186.848 90.6667 188.248 92.9 188.248 95.7C188.248 97.5 187.648 98.9333 186.448 100C185.248 101 183.615 101.5 181.548 101.5C180.081 101.5 178.548 101.133 176.948 100.4C177.815 99.7333 178.481 98.9 178.948 97.9C179.415 96.9 179.648 95.8667 179.648 94.8C179.648 93.1333 179.048 91.7333 177.848 90.6C176.648 89.4 174.881 88.8 172.548 88.8C170.281 88.8 168.515 89.4 167.248 90.6C166.048 91.8 165.448 93.2667 165.448 95Z" fill="white"/>
</svg>
